<?xml version="1.0" standalone="no"?>
<!DOCTYPE svg PUBLIC "-//W3C//DTD SVG 20010904//EN"
 "http://www.w3.org/TR/2001/REC-SVG-20010904/DTD/svg10.dtd">
<svg version="1.0" xmlns="http://www.w3.org/2000/svg"
 width="300.000000pt" height="148.000000pt" viewBox="0 0 300.000000 148.000000"
 preserveAspectRatio="xMidYMid meet">
<metadata>
Created by potrace 1.10, written by Peter Selinger 2001-2011
</metadata>
<g transform="translate(0.000000,148.000000) scale(0.100000,-0.100000)"
fill="#2B3B73" stroke="none">
<path fill="#FFB84D" d="M1396 1311 c-3 -5 -11 -67 -16 -138 -6 -70 -22 -206 -36 -301 -21
-146 -24 -181 -14 -226 14 -68 58 -138 100 -158 30 -15 31 -16 13 -29 -76 -55
-66 -168 26 -302 31 -46 34 -47 51 -32 25 22 85 140 99 192 14 51 -7 113 -46
138 l-25 17 34 17 c43 24 85 92 98 161 8 44 6 82 -10 185 -11 72 -25 184 -31
250 -19 215 -22 230 -44 230 -20 0 -20 -7 -20 -336 0 -317 -1 -338 -19 -358
-25 -28 -77 -28 -102 0 -18 20 -19 41 -19 357 0 305 -2 337 -17 340 -9 2 -19
-1 -22 -7z m235 -405 c26 -150 25 -263 -2 -322 -12 -25 -35 -55 -50 -66 -41
-30 -43 -46 -12 -91 38 -55 36 -97 -10 -190 -21 -43 -42 -77 -47 -77 -13 0
-53 66 -75 122 -22 59 -16 120 16 154 19 20 21 27 11 49 -6 14 -16 25 -22 25
-20 0 -69 82 -80 134 -9 42 -7 80 10 201 30 212 33 210 30 -17 -2 -165 10
-212 60 -242 48 -28 95 -15 124 35 15 26 18 60 19 242 1 117 3 199 5 182 2
-16 12 -79 23 -139z"/>
<!-- Left Eyebrow - Solid Fill -->
<path fill="#2B3B73" stroke="none" d="M570 824 c-75 -11 -141 -29 -188 -52 -54 -25 -122 -81 -122 -99 0 -5
33 2 73 16 65 23 87 26 217 26 141 0 148 -2 248 -36 174 -62 287 -142 425
-302 32 -37 63 -67 69 -67 7 0 9 19 5 55 -13 125 -144 295 -282 366 -144 75
-319 111 -445 93z"/>
<!-- Right Eyebrow - Solid Fill -->
<path fill="#2B3B73" stroke="none" d="M2260 819 c-87 -13 -217 -59 -286 -100 -72 -44 -170 -148 -211 -224
-39 -73 -59 -147 -46 -170 8 -14 13 -13 39 13 16 15 55 58 87 95 104 120 242
207 407 259 64 19 96 23 215 23 121 0 149 -3 208 -24 38 -12 71 -20 74 -17 20
20 -108 101 -205 130 -69 20 -201 27 -282 15z"/>
<path d="M660 423 c-14 -2 -69 -15 -122 -29 -53 -13 -119 -24 -147 -24 -61 0
-67 -17 -18 -54 40 -30 56 -34 85 -17 90 49 266 78 382 61 87 -12 146 -40 210
-97 54 -48 61 -44 31 15 -27 51 -77 97 -136 124 -40 18 -71 22 -155 24 -58 1
-116 0 -130 -3z"/>
<path d="M2103 413 c-77 -26 -134 -71 -166 -132 -16 -29 -26 -55 -23 -58 3 -4
25 13 48 36 57 56 127 88 218 101 113 16 265 -7 358 -54 l49 -25 34 21 c34 20
59 45 59 60 0 4 -26 8 -57 8 -32 0 -98 12 -148 26 -121 34 -296 42 -372 17z"/>
<path d="M501 206 c-11 -13 -11 -16 2 -16 9 0 53 -18 98 -40 112 -54 175 -55
329 -4 61 20 110 40 110 45 0 31 -83 35 -208 9 -51 -11 -75 -11 -135 -1 -124
23 -182 25 -196 7z"/>
<path d="M1998 210 c-10 -6 -18 -15 -18 -20 0 -5 49 -25 110 -44 156 -51 215
-50 335 6 108 51 103 47 85 58 -22 14 -73 12 -166 -7 -74 -15 -91 -16 -156 -3
-101 19 -170 22 -190 10z"/>
</g>
</svg>